<?xml version="1.0" encoding="UTF-8"?>
<svg id="Camada_1" data-name="Camada 1" xmlns="http://www.w3.org/2000/svg" xmlns:xlink="http://www.w3.org/1999/xlink" version="1.1" viewBox="0 0 100 100">
  <defs>
    <style>
      .cls-1 {
        fill: url(#linear-gradient);
        stroke-width: 0px;
      }
    </style>
    <linearGradient id="linear-gradient" x1="8.7" y1="50" x2="91.3" y2="50" gradientUnits="userSpaceOnUse">
      <stop offset="0" stop-color="#4633fa"/>
      <stop offset="1" stop-color="#ff2c5e"/>
    </linearGradient>
  </defs>
  <path class="cls-1" d="M75,46l1.8-1.8-5.5-5.5-10-10-5.5-5.5-1.8,1.8-3.7,3.6L18.1,60.9c-1.7,1.7-2.9,3.8-3.6,6.1l-5.7,19.5c-.4,1.4,0,2.8,1,3.8s2.5,1.4,3.8,1l19.4-5.7c2.3-.7,4.4-1.9,6-3.6l32.2-32.2,3.7-3.7ZM34.5,73.2l-1.5,3.7c-.7.5-1.4.9-2.1,1.1l-12.6,3.7,3.7-12.6c.2-.8.6-1.5,1.1-2.2l3.7-1.5v5.2c0,1.4,1.2,2.6,2.6,2.6h5.2s0,0,0,0ZM67.3,11.7l-2.3,2.3-3.7,3.7-1.8,1.8,5.5,5.5,10,10,5.5,5.5,1.8-1.8,3.7-3.7,2.3-2.3c4-4,4-10.6,0-14.6l-6.3-6.4c-4-4-10.6-4-14.6,0,0,0,0,0,0,0ZM59.6,38.8l-23.3,23.3c-1,1-2.7,1-3.7,0s-1-2.7,0-3.7l23.3-23.3c1-1,2.7-1,3.7,0s1,2.6,0,3.7h0Z"/>
</svg>