<?xml version="1.0" encoding="UTF-8"?>
<svg id="Camada_1" data-name="Camada 1" xmlns="http://www.w3.org/2000/svg" xmlns:xlink="http://www.w3.org/1999/xlink" version="1.1" viewBox="0 0 100 100">
  <defs>
    <style>
      .cls-1 {
        fill: url(#linear-gradient);
        stroke-width: 0px;
      }
    </style>
    <linearGradient id="linear-gradient" x1="8.9" y1="50" x2="91.1" y2="50" gradientUnits="userSpaceOnUse">
      <stop offset="0" stop-color="#4633fa"/>
      <stop offset="1" stop-color="#ff2c5e"/>
    </linearGradient>
  </defs>
  <path class="cls-1" d="M42.2,9c3.2.5,5.4,3.6,4.8,6.8l-1.8,10.8h17.5l2.1-12.7c.5-3.2,3.6-5.4,6.8-4.8s5.4,3.6,4.8,6.8l-1.8,10.8h10.7c3.2,0,5.9,2.6,5.9,5.9s-2.6,5.9-5.9,5.9h-12.6l-3.9,23.5h10.7c3.2,0,5.9,2.6,5.9,5.9s-2.6,5.9-5.9,5.9h-12.6l-2.1,12.7c-.5,3.2-3.6,5.4-6.8,4.8s-5.4-3.6-4.8-6.8l1.8-10.8h-17.5l-2.1,12.7c-.5,3.2-3.6,5.4-6.8,4.8s-5.4-3.6-4.8-6.8l1.8-10.8h-10.7c-3.2,0-5.9-2.6-5.9-5.9s2.6-5.9,5.9-5.9h12.6l3.9-23.5h-10.7c-3.2,0-5.9-2.6-5.9-5.9s2.6-5.9,5.9-5.9h12.6l2.1-12.7c.5-3.2,3.6-5.4,6.8-4.8,0,0,0,0,0,0ZM43.2,38.3l-3.9,23.5h17.5l3.9-23.5h-17.5Z"/>
</svg>