<?xml version="1.0" encoding="UTF-8"?>
<svg id="Camada_1" data-name="Camada 1" xmlns="http://www.w3.org/2000/svg" xmlns:xlink="http://www.w3.org/1999/xlink" version="1.1" viewBox="0 0 100 100">
  <defs>
    <style>
      .cls-1 {
        fill: url(#linear-gradient);
        stroke-width: 0px;
      }
    </style>
    <linearGradient id="linear-gradient" x1="11.5" y1="50" x2="88.5" y2="50" gradientUnits="userSpaceOnUse">
      <stop offset="0" stop-color="#4633fa"/>
      <stop offset="1" stop-color="#ff2c5e"/>
    </linearGradient>
  </defs>
  <path class="cls-1" d="M83.7,16.4c0-1.9-1.2-3.7-3-4.4s-3.9-.3-5.2,1l-6.6,6.6c-7.2,7.2-17,11.3-27.2,11.3h-20.5c-5.3,0-9.6,4.3-9.6,9.6v14.4c0,5.3,4.3,9.6,9.6,9.6v19.2c0,2.7,2.1,4.8,4.8,4.8h9.6c2.7,0,4.8-2.2,4.8-4.8v-19.2h1.3c10.2,0,20,4.1,27.2,11.3l6.6,6.6c1.4,1.4,3.4,1.8,5.2,1s3-2.5,3-4.4v-22.2c2.8-1.3,4.8-4.9,4.8-9.1s-2-7.8-4.8-9.1v-22.2h0ZM74,27.9v39.5c-8.8-8-20.4-12.5-32.3-12.5h-1.3v-14.4h1.3c12,0,23.5-4.5,32.3-12.5Z"/>
</svg>