<?xml version="1.0" encoding="UTF-8"?>
<svg id="Camada_1" data-name="Camada 1" xmlns="http://www.w3.org/2000/svg" xmlns:xlink="http://www.w3.org/1999/xlink" version="1.1" viewBox="0 0 100 100">
  <defs>
    <style>
      .cls-1 {
        fill: url(#linear-gradient);
        stroke-width: 0px;
      }
    </style>
    <linearGradient id="linear-gradient" x1="8.8" y1="50" x2="91.1" y2="50" gradientUnits="userSpaceOnUse">
      <stop offset="0" stop-color="#4633fa"/>
      <stop offset="1" stop-color="#ff2c5e"/>
    </linearGradient>
  </defs>
  <path class="cls-1" d="M89.3,27l-8.7-13.7c-.8-1.2-2.2-2-3.6-2H23c-1.5,0-2.8.8-3.6,2l-8.7,13.7c-4.5,7.1-.5,16.9,7.9,18.1.6,0,1.2.1,1.8.1,4,0,7.5-1.7,9.9-4.4,2.4,2.7,5.9,4.4,9.9,4.4s7.5-1.7,9.9-4.4c2.4,2.7,5.9,4.4,9.9,4.4s7.5-1.7,9.9-4.4c2.4,2.7,5.9,4.4,9.9,4.4s1.2,0,1.8-.1c8.4-1.1,12.4-11,7.9-18.1h0,0ZM82,49.8h0c-.8.1-1.6.2-2.4.2-1.9,0-3.7-.3-5.3-.8v20.2H25.8v-20.2c-1.7.5-3.5.8-5.4.8s-1.7,0-2.5-.2h0c-.6,0-1.2-.2-1.8-.3v29.6c0,5.3,4.3,9.7,9.7,9.7h48.4c5.3,0,9.7-4.3,9.7-9.7v-29.6c-.6.2-1.2.3-1.9.3h0Z"/>
</svg>