<?xml version="1.0" encoding="UTF-8"?>
<svg id="Camada_1" data-name="Camada 1" xmlns="http://www.w3.org/2000/svg" xmlns:xlink="http://www.w3.org/1999/xlink" version="1.1" viewBox="0 0 100 100">
  <defs>
    <style>
      .cls-1 {
        fill: url(#linear-gradient);
        stroke-width: 0px;
      }
    </style>
    <linearGradient id="linear-gradient" x1="8.9" y1="50" x2="91.1" y2="50" gradientUnits="userSpaceOnUse">
      <stop offset="0" stop-color="#4633fa"/>
      <stop offset="1" stop-color="#ff2c5e"/>
    </linearGradient>
  </defs>
  <path class="cls-1" d="M80.8,14h-13.8l-.2.2-20.4,20.4h14.8l.2-.2,20.4-20.4c-.3,0-.6,0-.9,0h0ZM91.1,34.6v-10.3c0-2.4-.8-4.7-2.2-6.4l-16.7,16.7s18.9,0,18.9,0ZM56.1,14h-14.8l-.2.2-20.4,20.4h14.8l.2-.2,20.4-20.4s0,0,0,0ZM19.2,14c-5.7,0-10.3,4.6-10.3,10.3v10.3h1l.2-.2L30.4,14h-11.3ZM91.1,39.7H8.9v36c0,5.7,4.6,10.3,10.3,10.3h61.7c5.7,0,10.3-4.6,10.3-10.3v-36Z"/>
</svg>