<?xml version="1.0" encoding="UTF-8"?>
<svg id="Camada_1" data-name="Camada 1" xmlns="http://www.w3.org/2000/svg" xmlns:xlink="http://www.w3.org/1999/xlink" version="1.1" viewBox="0 0 100 100">
  <defs>
    <style>
      .cls-1 {
        fill: url(#linear-gradient);
        stroke-width: 0px;
      }
    </style>
    <linearGradient id="linear-gradient" x1="8.9" y1="50" x2="91.2" y2="50" gradientUnits="userSpaceOnUse">
      <stop offset="0" stop-color="#4633fa"/>
      <stop offset="1" stop-color="#ff2c5e"/>
    </linearGradient>
  </defs>
  <path class="cls-1" d="M86.5,34.5c1.7-4,3.4-9.7,3.4-14.1,0-11.7-12.8-15.8-33.7-6.2-17.3-1.1-34,11.8-38.1,30,5-5.6,12.6-13.2,19.6-16.3-8.7,7.8-16.2,17.6-21.8,27.8-3.3,6.1-7.1,16-7.1,23.3,0,15.8,14.9,13.9,29,6.8,5,2.5,10.7,2.5,16.3,2.5,15.6,0,29.6-8.7,34.8-23.5h-19.4c-8.4,14.2-31.6,8.5-31.6-7.6h52.8c1-7-.3-15.4-4.3-22.7h0ZM19.2,64.6c2.9,8.2,8.6,15.4,16.1,19.8-14.3,7.9-27.9,4.7-16.1-19.8ZM37.9,47.1c.3-8.9,8.1-15.2,16.7-15.2s16.4,6.4,16.7,15.2h-33.4,0ZM67.5,17c3.4-1.6,7.8-3.5,11.7-3.5s8.7,3.5,8.7,8.6-1.2,7.9-2.3,10.9c-4.2-6.8-10.6-13.1-18.1-16h0Z"/>
</svg>