<?xml version="1.0" encoding="UTF-8"?>
<svg id="Camada_1" data-name="Camada 1" xmlns="http://www.w3.org/2000/svg" xmlns:xlink="http://www.w3.org/1999/xlink" version="1.1" viewBox="0 0 100 100">
  <defs>
    <style>
      .cls-1 {
        fill: url(#linear-gradient);
        stroke-width: 0px;
      }
    </style>
    <linearGradient id="linear-gradient" x1="8.7" y1="50" x2="91.3" y2="50" gradientUnits="userSpaceOnUse">
      <stop offset="0" stop-color="#4633fa"/>
      <stop offset="1" stop-color="#ff2c5e"/>
    </linearGradient>
  </defs>
  <path class="cls-1" d="M38.2,17.5c0-4.9,4-8.9,8.9-8.9h5.9c4.9,0,8.9,4,8.9,8.9v65c0,4.9-4,8.9-8.9,8.9h-5.9c-4.9,0-8.9-4-8.9-8.9V17.5ZM8.7,53c0-4.9,4-8.9,8.9-8.9h5.9c4.9,0,8.9,4,8.9,8.9v29.5c0,4.9-4,8.9-8.9,8.9h-5.9c-4.9,0-8.9-4-8.9-8.9,0,0,0-29.5,0-29.5ZM76.6,20.5h5.9c4.9,0,8.9,4,8.9,8.9v53.1c0,4.9-4,8.9-8.9,8.9h-5.9c-4.9,0-8.9-4-8.9-8.9V29.3c0-4.9,4-8.9,8.9-8.9h0Z"/>
</svg>