<?xml version="1.0" encoding="UTF-8"?>
<svg id="Camada_2" data-name="Camada 2" xmlns="http://www.w3.org/2000/svg" viewBox="0 0 26.86 26.91">
  <defs>
    <style>
      .cls-1 {
        fill: #4932fa;
      }

      .cls-1, .cls-2 {
        stroke-width: 0px;
      }

      .cls-2 {
        fill: #e7215e;
      }
    </style>
  </defs>
  <g id="Camada_1-2" data-name="Camada 1">
    <g>
      <path class="cls-2" d="M17.8.64l-4.7,4.7c-1.4,0-2.8.5-4,1.3-.5.3-.9.7-1.3,1.1s-.8.8-1.1,1.3c-.8,1.2-1.2,2.6-1.3,4,0,1.3.2,2.7.8,3.9l4.2-4.2,3.7,3.7-8.2,8.2c-.7-.5-1.4-1-2-1.6s-1.2-1.3-1.7-2.1c-.7-1-1.2-2-1.5-3.1C-.7,13.54,0,8.74,2.8,5.14c.3-.4.7-.8,1.1-1.2s.8-.8,1.2-1.1C8.7.04,13.5-.76,17.7.74l.1-.1Z"/>
      <path class="cls-1" d="M23,3.84c.6.6,1.2,1.3,1.6,2,.6.9,1.1,1.8,1.4,2.8,1.6,4.3,1,9.3-2,13.1-.3.4-.7.8-1.1,1.2s-.8.8-1.2,1.1c-3.8,3-8.8,3.6-13.1,2l4.5-4.5c1.6,0,3.3-.4,4.7-1.3.5-.3.9-.6,1.3-1.1s.8-.8,1.1-1.3c.9-1.4,1.4-3,1.3-4.7,0-1.2-.3-2.3-.9-3.4l-4.2,4.2-3.7-3.7L21,2.14c.7.5,1.4,1,2.1,1.7h-.1Z"/>
    </g>
  </g>
</svg>