<?xml version="1.0" encoding="UTF-8"?>
<svg id="Camada_2" data-name="Camada 2" xmlns="http://www.w3.org/2000/svg" xmlns:xlink="http://www.w3.org/1999/xlink" version="1.1" viewBox="0 0 26.9 26.9">
  <defs>
    <style>
      .cls-1 {
        fill: url(#Gradiente_sem_nome_4);
      }

      .cls-1, .cls-2, .cls-3, .cls-4, .cls-5, .cls-6 {
        stroke-width: 0px;
      }

      .cls-2 {
        fill: url(#Gradiente_sem_nome_4-3);
      }

      .cls-3 {
        fill: url(#Gradiente_sem_nome_4-6);
      }

      .cls-4 {
        fill: url(#Gradiente_sem_nome_4-4);
      }

      .cls-5 {
        fill: url(#Gradiente_sem_nome_4-2);
      }

      .cls-6 {
        fill: url(#Gradiente_sem_nome_4-5);
      }
    </style>
    <linearGradient id="Gradiente_sem_nome_4" data-name="Gradiente sem nome 4" x1="11.7" y1="15.7" x2="13.7" y2="6" gradientUnits="userSpaceOnUse">
      <stop offset="0" stop-color="#498ac9"/>
      <stop offset="1" stop-color="#72c4e8"/>
    </linearGradient>
    <linearGradient id="Gradiente_sem_nome_4-2" data-name="Gradiente sem nome 4" x1="12.1" y1="15.7" x2="14.1" y2="6" xlink:href="#Gradiente_sem_nome_4"/>
    <linearGradient id="Gradiente_sem_nome_4-3" data-name="Gradiente sem nome 4" x1="11.9" y1="15.7" x2="13.8" y2="6" xlink:href="#Gradiente_sem_nome_4"/>
    <linearGradient id="Gradiente_sem_nome_4-4" data-name="Gradiente sem nome 4" x1="20.5" y1="9.6" x2="14.1" y2="17.5" xlink:href="#Gradiente_sem_nome_4"/>
    <linearGradient id="Gradiente_sem_nome_4-5" data-name="Gradiente sem nome 4" x1="19.4" y1="8.8" x2="13.1" y2="16.7" xlink:href="#Gradiente_sem_nome_4"/>
    <linearGradient id="Gradiente_sem_nome_4-6" data-name="Gradiente sem nome 4" x1="21" y1="10.1" x2="14.7" y2="18" xlink:href="#Gradiente_sem_nome_4"/>
  </defs>
  <g>
    <path class="cls-1" d="M6.7,14.6c.3-3.1,5.2-7.6,10.8-10.1,1.3-.6,2.5-1,3.7-1.3-1.5.1-3.4.7-5.4,1.6-5.6,2.5-10.5,7-10.8,10.1-.3,2.4,2.2,3.2,5.9,2.3-2.7.3-4.4-.6-4.2-2.6Z"/>
    <path class="cls-5" d="M13.2,8.9c.3-.3.7-.6,1.1-.9.3-.2.6-.5.9-.7,1-.7,2.2-1.4,3.4-2,0,0,0,0,0,0-.3.1-.7.3-1,.4-5,2.2-9.3,6.2-9.6,9-.2,1.7,1.2,2.5,3.5,2.3-1.5-.3-2.3-1.1-2.1-2.5.2-1.6,1.7-3.7,4-5.7Z"/>
    <path class="cls-2" d="M18.1,2.3c-.6.2-1.3.4-2,.6-.5.2-1,.4-1.5.6-.4.2-.9.4-1.3.6-.4.2-.8.4-1.2.6C7.7,7.3,4.1,11,3.8,13.6c0,.8.1,1.4.6,1.8,0-.3,0-.6,0-.9.4-3.2,5.4-7.9,11.4-10.5,2.9-1.3,5.5-1.8,7.3-1.7-1.1-.5-2.8-.6-5,0Z"/>
  </g>
  <g>
    <path class="cls-4" d="M20.2,12.3c-.3,3.1-5.2,7.6-10.8,10.1-1.3.6-2.5,1-3.7,1.3,1.5-.1,3.4-.7,5.4-1.6,5.6-2.5,10.5-7,10.8-10.1.3-2.4-2.2-3.2-5.9-2.3,2.7-.3,4.4.6,4.2,2.6Z"/>
    <path class="cls-6" d="M13.6,18c-.3.3-.7.6-1.1.9-.3.2-.6.5-.9.7-1,.7-2.2,1.4-3.4,2,0,0,0,0,0,0,.3-.1.7-.3,1-.4,5-2.2,9.3-6.2,9.6-9,.2-1.7-1.2-2.5-3.5-2.3,1.5.3,2.3,1.1,2.1,2.5-.2,1.6-1.7,3.7-4,5.7Z"/>
    <path class="cls-3" d="M8.8,24.6c.6-.2,1.3-.4,2-.6.5-.2,1-.4,1.5-.6.4-.2.9-.4,1.3-.6.4-.2.8-.4,1.2-.6,4.5-2.6,8-6.2,8.3-8.8,0-.8-.1-1.4-.6-1.8,0,.3,0,.6,0,.9-.4,3.2-5.4,7.9-11.4,10.5-2.9,1.3-5.5,1.8-7.3,1.7,1.1.5,2.8.6,5,0Z"/>
  </g>
</svg>