<?xml version="1.0" encoding="UTF-8"?>
<svg id="Camada_2" data-name="Camada 2" xmlns="http://www.w3.org/2000/svg" version="1.1" viewBox="0 0 74.3 18.5">
  <defs>
    <style>
      .cls-1 {
        fill: #000;
        stroke-width: 0px;
      }
    </style>
  </defs>
  <g id="Camada_1-2" data-name="Camada 1-2">
    <g>
      <path class="cls-1" d="M4.6,11.1c-.5,0-.9,0-1.3-.2l-.7.7c.2.1.5.2.9.3.4,0,1,.2,1.8.2,1.3.1,2.2.4,2.8.9s.9,1.2.9,2-.2,1.1-.5,1.6-.8.9-1.4,1.2-1.5.5-2.5.5-2.5-.3-3.3-.8C.4,17.2,0,16.4,0,15.4s.4-1.6,1.3-2.2c-.3-.1-.5-.2-.7-.4s-.3-.3-.5-.4v-.4l1.7-1.8c-.8-.7-1.1-1.5-1.1-2.5s.2-1.2.5-1.8.8-.9,1.4-1.3c.6-.3,1.3-.5,2.1-.5s1.1,0,1.5.2h3.7v1.5h-1.6c.3.6.4,1.2.4,1.8s-.2,1.2-.5,1.8c-.3.5-.8.9-1.3,1.3-.6.3-1.3.5-2.1.5h0ZM2.3,15.2c0,.5.2.8.7,1.1s1,.4,1.6.4,1.1-.1,1.5-.4.6-.6.6-1-.1-.6-.4-.9-.8-.4-1.5-.4c-.5,0-1-.1-1.5-.2-.4.2-.6.4-.8.7-.2.2-.2.5-.2.8h0ZM4.6,9.2c.5,0,.9-.1,1.2-.4.3-.3.5-.7.5-1.2s-.2-.9-.5-1.2-.8-.4-1.2-.4-1,.1-1.3.4-.5.7-.5,1.2.2.9.5,1.2c.3.3.7.4,1.3.4Z"/>
      <path class="cls-1" d="M14.4,14.2c-.9,0-1.6-.1-2.2-.4s-1.2-.7-1.6-1.1-.6-1.1-.7-1.7h2.5c0,.4.3.7.6,1s.8.4,1.3.4.9-.1,1.2-.3c.2-.2.4-.5.4-.8s-.2-.7-.5-.8c-.4-.1-.9-.3-1.5-.4-.4,0-.8-.2-1.3-.3s-.8-.3-1.2-.5c-.4-.2-.6-.5-.9-.8-.2-.3-.3-.7-.3-1.2,0-.8.3-1.6,1-2.2.7-.6,1.6-.9,2.9-.9s2.1.3,2.7.8,1.1,1.3,1.2,2.2h-2.4c-.1-.7-.7-1.1-1.6-1.1s-.8,0-1.1.3c-.2.2-.4.4-.4.7s.2.5.6.7c.4.2.9.3,1.5.5.7.2,1.3.3,1.8.5.6.2,1,.5,1.4.8.3.4.5.9.5,1.6,0,.6-.1,1.1-.5,1.6s-.8.9-1.4,1.1c-.6.3-1.3.4-2.1.4h0Z"/>
      <path class="cls-1" d="M26.9,14.2c-.9,0-1.6-.1-2.2-.4s-1.2-.7-1.5-1.1-.6-1.1-.7-1.7h2.5c0,.4.3.7.6,1s.8.4,1.3.4.9-.1,1.2-.3.4-.5.4-.8-.2-.7-.5-.8c-.4-.1-.9-.3-1.5-.4-.4,0-.8-.2-1.3-.3s-.8-.3-1.2-.5c-.4-.2-.6-.5-.9-.8-.2-.3-.3-.7-.3-1.2,0-.8.3-1.6,1-2.2s1.6-.9,2.9-.9,2,.3,2.7.8,1.1,1.3,1.2,2.2h-2.4c-.1-.7-.7-1.1-1.6-1.1s-.8,0-1.1.3c-.2.2-.4.4-.4.7s.2.5.6.7c.4.2.9.3,1.5.5.7.2,1.3.3,1.9.5.6.2,1,.5,1.4.8.3.4.5.9.5,1.6,0,.6-.1,1.1-.5,1.6s-.8.9-1.4,1.1c-.6.3-1.3.4-2.1.4h0Z"/>
      <path class="cls-1" d="M35.9,14c-1,0-1.8-.2-2.4-.7s-.9-1.4-.9-2.6v-4.2h-1.6v-2.1h1.6l.3-2.6h2.2v2.6h2.6v2.1h-2.6v4.2c0,.5,0,.8.3,1s.5.3,1,.3h1.2v2.1h-1.7,0Z"/>
      <path class="cls-1" d="M42.2,14.2c-1.2,0-2.1-.4-2.8-1.1-.7-.8-1-1.9-1-3.3v-5.4h2.5v5.2c0,.8.2,1.5.5,1.9.3.4.9.7,1.6.7s1.2-.2,1.7-.7.7-1.2.7-2.1v-5h2.5v9.6h-2.2l-.2-1.6c-.3.6-.7,1-1.3,1.4s-1.2.5-2,.5h0Z"/>
      <path class="cls-1" d="M53.7,14.2c-.9,0-1.7-.2-2.4-.7-.7-.4-1.3-1-1.7-1.8-.4-.8-.6-1.6-.6-2.6s.2-1.8.6-2.6,1-1.3,1.7-1.8c.7-.4,1.5-.7,2.4-.7s1.4.1,1.9.4,1,.7,1.3,1.2V1.8h2.5v12.2h-2.2l-.3-1.4c-.3.4-.7.8-1.2,1.1-.5.3-1.2.5-2,.5h0ZM54.2,12c.8,0,1.5-.3,2-.8.5-.5.8-1.2.8-2.1s-.3-1.5-.8-2.1c-.5-.5-1.2-.8-2-.8s-1.4.3-2,.8-.8,1.2-.8,2.1.3,1.5.8,2.1c.5.5,1.2.8,2,.8Z"/>
      <path class="cls-1" d="M62.1,2.8c-.5,0-.8-.1-1.1-.4-.3-.3-.4-.6-.4-1s.2-.8.4-1c.3-.3.7-.4,1.1-.4s.8.1,1.1.4c.3.3.4.6.4,1s-.2.8-.4,1c-.3.3-.7.4-1.1.4ZM60.8,14V4.3h2.5v9.6h-2.5Z"/>
      <path class="cls-1" d="M69.4,14.2c-.9,0-1.8-.2-2.5-.6-.7-.4-1.3-1-1.8-1.8-.4-.8-.7-1.6-.7-2.6s.2-1.9.7-2.6,1-1.3,1.8-1.8c.7-.4,1.6-.6,2.5-.6s1.8.2,2.5.6,1.3,1,1.8,1.8c.4.8.7,1.6.7,2.6s-.2,1.9-.7,2.6-1,1.4-1.8,1.8c-.8.4-1.6.6-2.5.6ZM69.4,12.1c.7,0,1.2-.2,1.7-.7s.7-1.2.7-2.2-.2-1.7-.7-2.2-1-.7-1.7-.7-1.2.2-1.7.7-.7,1.2-.7,2.2.2,1.7.7,2.2,1,.7,1.7.7Z"/>
    </g>
  </g>
</svg>